<!DOCTYPE svg PUBLIC "-//W3C//DTD SVG 1.1//EN" "http://www.w3.org/Graphics/SVG/1.1/DTD/svg11.dtd">
<!-- Uploaded to: SVG Repo, www.svgrepo.com, Transformed by: SVG Repo Mixer Tools -->
<svg height="800px" width="800px" version="1.1" id="Capa_1" xmlns="http://www.w3.org/2000/svg" xmlns:xlink="http://www.w3.org/1999/xlink" viewBox="0 0 48.885 48.885" xml:space="preserve" fill="#000000">
<g id="SVGRepo_bgCarrier" stroke-width="0"/>
<g id="SVGRepo_tracerCarrier" stroke-linecap="round" stroke-linejoin="round"/>
<g id="SVGRepo_iconCarrier"> <g> <g> <path style="fill:#BBE1FA;" d="M11.285,1.962L1.093,8.617c-1.387,0.906-1.464,2.48-0.17,3.515l5.837,4.675 c1.293,1.036,3.485,1.17,4.894,0.299l10.236-6.321c1.41-0.87,1.521-2.437,0.249-3.499l-6.04-5.042 C14.828,1.183,12.672,1.057,11.285,1.962z"/> <path style="fill:#BBE1FA;" d="M1.093,28.747l10.192,6.654c1.387,0.906,3.543,0.779,4.815-0.282l6.04-5.042 c1.272-1.062,1.16-2.628-0.25-3.499l-10.236-6.321c-1.41-0.87-3.601-0.737-4.894,0.299l-5.837,4.675 C-0.371,26.268-0.294,27.841,1.093,28.747z"/> <path style="fill:#BBE1FA;" d="M26.746,30.077l6.041,5.042c1.272,1.062,3.428,1.188,4.815,0.282l10.191-6.654 c1.387-0.906,1.464-2.48,0.17-3.515l-5.837-4.675c-1.293-1.036-3.484-1.17-4.894-0.299l-10.236,6.321 C25.586,27.449,25.474,29.015,26.746,30.077z"/> <path style="fill:#BBE1FA;" d="M47.794,8.617L37.602,1.962c-1.387-0.906-3.543-0.779-4.815,0.282l-6.041,5.042 c-1.272,1.062-1.16,2.628,0.249,3.498l10.236,6.321c1.41,0.87,3.601,0.737,4.894-0.299l5.837-4.675 C49.257,11.096,49.181,9.523,47.794,8.617z"/> <path style="fill:#BBE1FA;" d="M22.166,31.982l-6.06,5.029c-1.275,1.058-3.331,1.248-4.593,0.424 c-1.262-0.824-2.285-0.743-2.285,0.181s1.152,2.363,2.573,3.215l10.101,6.058c1.421,0.852,3.725,0.852,5.146,0l10.102-6.058 c1.421-0.852,2.573-2.292,2.573-3.215s-1.023-1.004-2.284-0.181c-1.262,0.824-3.318,0.634-4.593-0.424l-6.061-5.029 C25.508,30.924,23.441,30.924,22.166,31.982z"/> </g> </g> </g>
</svg>